<svg id="logo-svg" xmlns="http://www.w3.org/2000/svg" width="400px" height="100px" viewBox="0 0 400 100">
  <style>
    .st0{fill:#fff}
  </style>
  <defs>
    <clipPath id="S">
      <path class="st0 logo__s" d="M11.6 29.9c.3 1.5.9 3.1 1.8 5 .8 1.8 1.8 3.7 2.9 5.5 1.1 1.8 2.3 3.4 3.5 4.9 1.2 1.5 2.4 2.6 3.6 3.3.5 0 1-.3 1.3-.9.4-.6.7-1.4.9-2.3.2-.9.4-1.8.5-2.8.1-1 .1-1.7.2-2.3 0-.6.2-.9.6-1.1.3-.2.6-.2.6-.2l8.9-1.8c.3 0 .5.1.6.4.1.3.2.6.2.9 0 .5-.1.8-.3 1-2.7 3-5.3 6-7.7 9.2-2.4 3.1-4.9 6.2-7.6 9.2-.8.7-1.7 1.4-2.7 2-1 .7-2 1-3 1-.4 0-.8 0-1.1-.1-.3-.1-.7-.3-1-.7-1.7-1.7-3.3-3.3-4.9-5-1.6-1.7-3-3.5-4.2-5.4-1.2-1.9-2.3-4-3.1-6.2C.8 41.3.2 38.8 0 36.1c.3-2.9 1-6.1 2.2-9.5 1.2-3.4 2.7-6.7 4.4-10 1.8-3.2 3.8-6.2 6-8.8 2.2-2.7 4.5-4.7 7-6 0 0 .3.3.8.9.5.7 1.1 1.6 1.9 2.6.8 1.1 1.6 2.2 2.5 3.5.9 1.3 1.8 2.5 2.7 3.7.9 1.2 1.7 2.2 2.4 3.2.7.9 1.3 1.6 1.7 1.9l.6.6.6.6c-2.4.6-4.7 1-7.1 1.3-2.3.3-4.7.7-7.1 1-.6-1.5-1.4-2.8-2.4-3.9-1-1.2-2-1.7-3.2-1.7-.5 0-.9.2-1.2.7-.3.5-.6 1.1-.8 1.8-.2.8-.4 1.6-.5 2.5-.1.9-.2 1.9-.2 2.8 0 1.2.1 2.3.4 3.4.4 1.1.7 2.2.9 3.2z"/>
    </clipPath>
  </defs>
  <g clip-path="url(#S)">
    <rect class="logo__s" width="100%" height="100%" fill="#fff"/>
  </g>
  <path class="st0 logo__y" d="M68.2 40.6v-3-4.1c0-1.4.1-2.8.1-4.1 0-1.3.1-2.3.1-3-.6.1-1.3.4-2.1.9-.8.6-1.7 1.3-2.7 2.1-1 .8-2 1.7-3 2.5-1 .9-2 1.7-2.9 2.4 0 1.3.1 2.3.2 3.1.1.8.2 1.4.3 2 .1.6.3 1.1.4 1.6.1.5.3 1.1.5 1.9.1.7.4 1.3.7 1.8.3.6.6 1.1 1 1.6.3.5.6 1.1.8 1.7.2.6.4 1.2.4 1.9 0 .9-.4 1.7-1.2 2.2-.8.6-1.8 1-2.8 1.4-1.1.4-2.1.6-3.2.7-1.1.1-1.8.2-2.2.2-.1 0-.4 0-.9-.1-.5 0-.9-.1-1.5-.2-.5 0-1.1-.1-1.5-.2-.5 0-.9-.1-1.1-.1-.9 0-1.6-.5-2-1.4-.4-.9-.7-2-.9-3.4-.2-1.3-.3-2.8-.3-4.4-.1-1.6-.2-3-.4-4.3 0-2.6.1-5.2.2-7.8.1-1.4.1-2.8.2-4.2 0-1.4.1-2.8.1-4.2 0-1 0-1.9-.1-2.8-.1-.9-.2-1.9-.3-2.8-.1-1-.2-2-.3-3.1-.1-1-.2-2.1-.2-3.1 0-1.6.4-2.7 1.1-3.5.7-.8 1.7-1.1 2.9-1.1 1.5 0 3 .1 4.5.2s3 .2 4.4.3c.7.6 1.2 1.3 1.4 2 .2.7.3 1.5.3 2.5 0 .9 0 1.7-.1 2.6 0 .9-.1 1.8-.2 2.6 0 .3-.1 1-.1 2s0 2.1-.1 3.3v5.3c1.3-1.1 2.6-2.1 4-3 1.3-.9 2.5-1.7 3.5-2.4 1-.8 1.8-1.5 2.4-2.2.6-.7.8-1.5.7-2.3-.1-1-.2-2-.3-3.1-.1-1-.2-2.1-.2-3.1 0-1.6.4-2.7 1.1-3.5s1.6-.9 2.9-.9c1.5 0 3 .1 4.5.2s3 .2 4.4.3c.7.6 1.2 1.3 1.4 2 .2.7.3 1.5.3 2.5 0 .9 0 1.7-.1 2.6 0 .9-.1 1.8-.2 2.6-.1 1.7-.2 3.4-.2 5.1 0 1.1 0 2.5.1 4.3.1 1.8.2 3.7.4 5.6.1 1.9.3 3.8.5 5.6.2 1.8.4 3.2.6 4.2.1.7.3 1.3.6 1.8.3.6.6 1.1.9 1.6.3.5.6 1.1.8 1.7.2.6.4 1.2.4 1.9 0 .9-.4 1.7-1.2 2.2-.8.6-1.8 1-2.8 1.4-1.1.4-2.1.6-3.2.7-1.1.1-1.8.2-2.2.2-.1 0-.4 0-.9-.1-.5 0-.9-.1-1.5-.2-.5 0-1.1-.1-1.5-.2-.5 0-.9-.1-1.1-.1-.9 0-1.6-.5-2-1.4-.4-.9-.7-2-.9-3.4-.2-1.3-.3-2.8-.3-4.4-.2-1.3-.3-2.8-.4-4.1z"/>
  <path class="st0 logo__t" d="M101.3 45c0-2.1.2-4.1.5-6.2.3-2.1.8-4.1 1.3-6.2.5-2 1.1-4.1 1.7-6.1.6-2 1.2-4.1 1.8-6.1.2-.6.4-1.3.5-2 .2-.7.4-1.5.6-2.2.2-.7.4-1.4.5-2 .1-.6.2-1.1.2-1.4 0-.9-.3-1.5-.8-1.6-.5-.2-1.1-.3-1.8-.3-1.3 0-2.4.5-3.5 1.5-1 1-1.9 2.3-2.7 3.9-.8 1.6-1.4 3.3-1.9 5.2-.5 1.9-1 3.7-1.3 5.5-.3 1.8-.6 3.4-.7 4.9-.2 1.4-.2 2.5-.2 3.1-1-.8-1.7-2-2.3-3.5-.5-1.5-.9-3-1.2-4.6-.3-1.5-.4-3-.5-4.2 0-1.3-.1-2.1-.1-2.5 0-2.8.1-5 .2-6.8.1-1.7.5-3.1 1.2-4.1.7-1 1.7-1.7 3.2-2 1.4-.4 3.5-.6 6.1-.6 4 0 7.8.3 11.6.8 3.7.5 7.5 1 11.5 1.6.8.1 1.8.2 3 .2 1.2.1 2.4.1 3.7.2 1.3.1 2.5.1 3.7.1h3.1c-1 1.2-2 2.7-3.1 4.5-1.1 1.8-2.1 3.7-3.1 5.6-1 1.9-2 3.9-2.8 5.8-.9 1.9-1.6 3.6-2.2 5.1-.3.6-.5 1.2-.9 1.8-.3.6-.7 1.2-1 1.7-.3.5-.7.9-1 1.2-.3.3-.6.5-.9.5-.5 0-.8-.2-.9-.6-.1-.4-.2-.8-.2-1.2 0-1.5.1-3.1.4-4.6.3-1.6.5-3.1.9-4.7.3-1.5.6-3.1.9-4.6.3-1.5.4-3.1.4-4.6 0-.6-.1-1.1-.4-1.5-.3-.4-.6-.7-1-.9-.4-.2-.8-.4-1.3-.5-.5-.1-.9-.2-1.4-.2-.8 0-1.6.2-2.3.7-.7.5-1.1 1.3-1.2 2.4-.1 1.4-.2 2.7-.2 3.9-.1 1.2-.1 2.3-.2 3.3 0 1.1-.1 2.1-.1 3.2v3.6c0 1.8 0 3.8.1 6s.3 4.3.7 6.5c.4 2.2 1 4.2 1.9 6.1.8 1.9 2 3.4 3.4 4.7 0 .3-.3.6-.9.9-.6.3-1.4.6-2.4.8-1 .2-2 .4-3.2.6-1.2.2-2.3.3-3.4.5-1.1.1-2.1.2-3.1.3-.9 0-1.6.1-2 .1-1.7 0-3-.2-3.9-.6-.9-.4-1.7-1-2.1-1.9-.5-.9-.8-2-.9-3.4V45z"/>
  <path class="st0 logo__a" d="M155.7 5.3c.1 0 .3-.1.5-.2.2 0 .5-.1.8-.1.3 0 .5 0 .7-.1h.5c1.4 0 2.6.4 3.6 1.1 1 .7 1.9 1.7 2.7 2.8.8 1.1 1.4 2.4 2 3.8s1.2 2.7 1.8 3.9c.8 1.8 1.6 3.6 2.2 5.4.7 1.8 1.3 3.7 1.9 5.6l1.8 5.7c.6 1.9 1.2 3.8 1.9 5.7.3.9.7 1.9 1.2 3.1.5 1.2.9 2.3 1.4 3.3.5 1 1 1.9 1.4 2.7.5.8.8 1.3 1.2 1.5-.4 1.3-1 2.2-1.8 2.9-.8.7-1.7 1.2-2.7 1.5-1 .3-2 .5-3 .6-1 .1-1.9.1-2.6.1-1.7 0-3.1-.3-4-.9-1-.6-1.7-1.3-2.4-2.1-.6-.8-1.1-1.5-1.6-2.1-.5-.6-1-.9-1.7-.9-1 0-1.8.2-2.6.5-.7.3-1.4.7-2.1 1.3-.6.5-1.3 1-2 1.6-.7.5-1.4 1-2.2 1.4-.9.4-1.8.7-2.8.8-1 .1-2 .2-3 .2-.8 0-1.6 0-2.4-.2-.8-.1-1.5-.3-2.2-.7-.6-.4-1.2-.8-1.6-1.4-.4-.6-.6-1.4-.6-2.5 0-2.2.4-4.4 1.2-6.4.8-2.1 1.8-4 3-5.9 1.2-1.9 2.5-3.6 3.9-5.3 1.4-1.7 2.8-3.2 4.1-4.7.3-.4.6-.8.9-1.1.3-.3.4-.8.4-1.5 0-.8-.2-1.7-.5-2.8-.3-1.1-.7-2.1-1.1-3.1-.4-1-.9-1.8-1.3-2.6-.5-.7-.8-1.2-1.1-1.3-.2-.4-.5-.7-.9-.9-.4-.3-.8-.5-1.2-.8s-.7-.6-1-.9c-.3-.3-.5-.7-.5-1.3 0-.6.2-1 .5-1.3.3-.3.7-.6 1.1-.8l8.2-3.6zM150.3 39c0 1.1.2 2 .7 2.7.5.7 1.1 1.2 1.8 1.6.7.4 1.5.6 2.4.8.9.1 1.7.2 2.4.2.8 0 1.4-.2 1.9-.6.5-.4.7-1 .7-1.8 0-.3-.1-.6-.2-.9-.1-.4-.2-.7-.4-1-.1-.3-.4-.8-.7-1.6-.3-.7-.6-1.5-1-2.3-.3-.8-.6-1.6-1-2.3-.3-.7-.5-1.3-.7-1.6-.3-.6-.6-.9-1-1.1-.4-.2-.8-.3-1.1-.3-.7 0-1.3.3-1.8.9-.5.6-.9 1.4-1.2 2.3-.3.9-.6 1.8-.7 2.7 0 .9-.1 1.7-.1 2.3z"/>
  <path class="st0 logo__*" d="M205.7 5.7l-6.1 9.5v.2l9.7-1.5V19l-9.7-1.4v.2l6.2 9.1-4.1 2.7-3.9-10.6h-.1l-4.2 10.7-3.7-2.7 6.1-9.2v-.2l-9.5 1.4v-5.2l9.5 1.4V15l-6.1-9.2 3.9-2.7 4 10.5h.1L201.7 3l4 2.7z"/>
  <path class="st0 logo__h" d="M214.7 75.7c-.1-.1-.1-.3-.2-.6 0-.3 0-.6-.1-1v-1-.6c0-2 .3-4.3.8-6.7.5-2.5 1.3-5 2.2-7.6.9-2.6 1.9-5.2 3.1-7.8 1.2-2.6 2.4-5.2 3.7-7.6 1.3-2.4 2.6-4.7 3.9-6.8 1.3-2.1 2.5-3.9 3.6-5.4-.5-1.6-1.3-3.5-2.4-5.6-1.2-2.1-2.4-4.1-3.8-6s-2.7-3.5-3.9-4.9c-1.2-1.4-2.2-2.1-2.9-2.3 0 0-.1-.1-.1-.2v-.3c0-.5.3-1 .9-1.6.6-.6 1.4-1.1 2.3-1.7.9-.6 2-1.1 3.1-1.6s2.2-.9 3.3-1.3 2-.7 2.9-.9c.9-.2 1.5-.3 2-.3 1.2 0 2.2.5 3.2 1.4 1 .9 1.8 1.9 2.5 3.1.7 1.2 1.3 2.3 1.8 3.5.5 1.2.9 2 1.1 2.5.4-.8.8-1.5 1.4-2.3.5-.8 1.1-1.6 1.6-2.3s1.2-1.5 1.8-2.2c.6-.7 1.2-1.3 1.7-1.8.3-.4.8-.6 1.4-.7.6-.1 1.1-.2 1.5-.2.5 0 1 .1 1.6.2.6.2 1.2.4 1.8.8.6.4 1.1.8 1.5 1.5.4.6.7 1.4.8 2.4-.7.1-1.7.3-2.9.8s-2.5 1.1-3.9 1.9c-1.4.8-2.7 1.6-3.9 2.5-1.3.9-2.3 1.8-3.1 2.7.8 2.1 1.8 4.4 2.8 7 1.1 2.5 2.2 5 3.4 7.5s2.4 4.9 3.6 7.2c1.2 2.3 2.3 4.4 3.3 6.2 0 1.2-.3 2.2-1 3.3-.7 1-1.5 1.9-2.5 2.7-1 .8-2 1.4-3.1 1.9s-2 .7-2.8.7c-1 0-2-.5-3-1.4-1-.9-2-2-3-3.4s-1.9-2.9-2.8-4.5c-.9-1.6-1.7-3.2-2.4-4.7s-1.3-2.8-1.7-3.9c-.5-1.1-.7-1.8-.8-2.2-.9 1.3-1.8 3-2.7 5.1-.9 2.1-1.8 4.3-2.7 6.8-.9 2.5-1.7 5.1-2.4 7.8-.8 2.8-1.4 5.5-2 8.1-.6 2.7-1 5.2-1.3 7.6-.3 2.4-.5 4.5-.5 6.3 0 1.6.1 2.9.4 3.9-.4 0-1-.1-1.7-.3-.7-.2-1.4-.5-2.1-.8-.7-.4-1.4-.8-2-1.3-.6-.6-1-1.1-1.3-1.6z"/>
  <path class="st0 logo__2a" d="M278.9 5.3c.1 0 .3-.1.5-.2.2 0 .5-.1.8-.1.3 0 .5 0 .7-.1h.5c1.4 0 2.6.4 3.6 1.1 1 .7 1.9 1.7 2.7 2.8s1.4 2.4 2 3.8c.6 1.4 1.2 2.7 1.8 3.9.8 1.8 1.6 3.6 2.2 5.4.7 1.8 1.3 3.7 1.9 5.6l1.8 5.7c.6 1.9 1.2 3.8 1.9 5.7.3.9.7 1.9 1.2 3.1.5 1.2.9 2.3 1.4 3.3.5 1 1 1.9 1.4 2.7.5.8.8 1.3 1.2 1.5-.4 1.3-1 2.2-1.8 2.9-.8.7-1.7 1.2-2.7 1.5-1 .3-2 .5-3 .6-1 .1-1.9.1-2.6.1-1.7 0-3.1-.3-4-.9-1-.6-1.7-1.3-2.3-2.1-.6-.8-1.1-1.5-1.6-2.1-.5-.6-1-.9-1.7-.9-1 0-1.8.2-2.6.5-.7.3-1.4.7-2.1 1.3-.6.5-1.3 1-2 1.6-.7.5-1.4 1-2.2 1.4-.9.4-1.8.7-2.8.8-1 .1-2 .2-3 .2-.8 0-1.6 0-2.4-.2-.8-.1-1.5-.3-2.2-.7-.6-.4-1.2-.8-1.6-1.4-.4-.6-.6-1.4-.6-2.5 0-2.2.4-4.4 1.2-6.4.8-2.1 1.8-4 3-5.9 1.2-1.9 2.5-3.6 3.9-5.3 1.4-1.7 2.8-3.2 4.1-4.7.3-.4.6-.8.9-1.1.3-.3.4-.8.4-1.5 0-.8-.2-1.7-.5-2.8s-.7-2.1-1.1-3.1c-.4-1-.9-1.8-1.3-2.6-.5-.7-.8-1.2-1.1-1.3-.2-.4-.5-.7-.9-.9-.4-.3-.8-.5-1.2-.8-.4-.3-.7-.6-1-.9-.3-.3-.5-.7-.5-1.3 0-.6.2-1 .5-1.3.3-.3.7-.6 1.1-.8l8.1-3.6zM273.6 39c0 1.1.2 2 .7 2.7.5.7 1.1 1.2 1.8 1.6.7.4 1.5.6 2.4.8.9.1 1.7.2 2.4.2.8 0 1.4-.2 1.9-.6.5-.4.7-1 .7-1.8 0-.3-.1-.6-.2-.9-.1-.4-.2-.7-.4-1-.1-.3-.4-.8-.7-1.6-.3-.7-.6-1.5-1-2.3-.3-.8-.6-1.6-1-2.3-.3-.7-.5-1.3-.7-1.6-.3-.6-.6-.9-1-1.1-.4-.2-.8-.3-1.1-.3-.7 0-1.3.3-1.8.9-.5.6-.9 1.4-1.2 2.3-.3.9-.6 1.8-.7 2.7-.1.9-.1 1.7-.1 2.3z"/>
  <path class="st0 logo__2t" d="M313.7 45c0-2.1.2-4.1.5-6.2.3-2.1.8-4.1 1.3-6.2.5-2 1.1-4.1 1.7-6.1.6-2 1.2-4.1 1.8-6.1.2-.6.4-1.3.5-2 .2-.7.4-1.5.6-2.2.2-.7.4-1.4.5-2 .1-.6.2-1.1.2-1.4 0-.9-.3-1.5-.8-1.6-.5-.2-1.1-.3-1.8-.3-1.3 0-2.4.5-3.5 1.5-1 1-1.9 2.3-2.7 3.9-.8 1.6-1.4 3.3-1.9 5.2-.5 1.9-1 3.7-1.3 5.5-.3 1.8-.6 3.4-.7 4.9-.2 1.4-.2 2.5-.2 3.1-1-.8-1.8-2-2.3-3.5-.5-1.5-.9-3-1.2-4.6-.3-1.5-.4-3-.5-4.2 0-1.3-.1-2.1-.1-2.5 0-2.8.1-5 .2-6.8s.5-3.1 1.2-4.1c.7-1 1.7-1.7 3.2-2s3.5-.6 6.1-.6c4 0 7.8.3 11.6.8 3.7.5 7.5 1 11.5 1.6.8.1 1.8.2 3 .2 1.2.1 2.4.1 3.7.2 1.3.1 2.5.1 3.7.1h3.1c-1 1.2-2 2.7-3.1 4.5s-2.1 3.7-3.1 5.6c-1 1.9-2 3.9-2.8 5.8-.9 1.9-1.6 3.6-2.2 5.1-.3.6-.5 1.2-.9 1.8-.3.6-.7 1.2-1 1.7-.3.5-.7.9-1 1.2s-.6.5-.9.5c-.5 0-.8-.2-.9-.6-.1-.4-.2-.8-.2-1.2 0-1.5.1-3.1.4-4.6.3-1.6.5-3.1.9-4.7.3-1.5.6-3.1.9-4.6.3-1.5.4-3.1.4-4.6 0-.6-.1-1.1-.4-1.5s-.6-.7-1-.9c-.4-.2-.8-.4-1.3-.5-.5-.1-.9-.2-1.4-.2-.8 0-1.6.2-2.3.7-.7.5-1.1 1.3-1.2 2.4-.1 1.4-.2 2.7-.2 3.9-.1 1.2-.1 2.3-.2 3.3s-.1 2.1-.1 3.2v3.6c0 1.8 0 3.8.1 6s.3 4.3.7 6.5c.4 2.2 1 4.2 1.9 6.1.8 1.9 2 3.4 3.4 4.7 0 .3-.3.6-.9.9-.6.3-1.4.6-2.4.8-1 .2-2 .4-3.2.6-1.2.2-2.3.3-3.4.5-1.1.1-2.1.2-3.1.3-.9 0-1.6.1-2 .1-1.7 0-3-.2-3.9-.6-.9-.4-1.7-1-2.1-1.9-.5-.9-.8-2-.9-3.4V45z"/>
  <path class="st0 logo__3a" d="M368.1 5.3c.1 0 .3-.1.5-.2.2 0 .5-.1.8-.1.3 0 .5 0 .7-.1h.5c1.4 0 2.6.4 3.6 1.1 1 .7 1.9 1.7 2.7 2.8s1.4 2.4 2 3.8c.6 1.4 1.2 2.7 1.8 3.9.8 1.8 1.6 3.6 2.2 5.4.7 1.8 1.3 3.7 1.9 5.6l1.8 5.7c.6 1.9 1.2 3.8 1.9 5.7.3.9.7 1.9 1.2 3.1.5 1.2.9 2.3 1.4 3.3.5 1 1 1.9 1.4 2.7.5.8.8 1.3 1.2 1.5-.4 1.3-1 2.2-1.8 2.9-.8.7-1.7 1.2-2.7 1.5-1 .3-2 .5-3 .6-1 .1-1.9.1-2.6.1-1.7 0-3.1-.3-4-.9-1-.6-1.7-1.3-2.3-2.1-.6-.8-1.1-1.5-1.6-2.1-.5-.6-1-.9-1.7-.9-1 0-1.8.2-2.6.5-.7.3-1.4.7-2.1 1.3-.6.5-1.3 1-2 1.6-.7.5-1.4 1-2.2 1.4-.9.4-1.8.7-2.8.8-1 .1-2 .2-3 .2-.8 0-1.6 0-2.4-.2-.8-.1-1.5-.3-2.2-.7-.6-.4-1.2-.8-1.6-1.4-.4-.6-.6-1.4-.6-2.5 0-2.2.4-4.4 1.2-6.4.8-2.1 1.8-4 3-5.9 1.2-1.9 2.5-3.6 3.9-5.3 1.4-1.7 2.8-3.2 4.1-4.7.3-.4.6-.8.9-1.1.3-.3.4-.8.4-1.5 0-.8-.2-1.7-.5-2.8s-.7-2.1-1.1-3.1c-.4-1-.9-1.8-1.3-2.6-.5-.7-.8-1.2-1.1-1.3-.2-.4-.5-.7-.9-.9-.4-.3-.8-.5-1.2-.8-.4-.3-.7-.6-1-.9-.3-.3-.5-.7-.5-1.3 0-.6.2-1 .5-1.3.3-.3.7-.6 1.1-.8l8.1-3.6zM362.7 39c0 1.1.2 2 .7 2.7.5.7 1.1 1.2 1.8 1.6.7.4 1.5.6 2.4.8.9.1 1.7.2 2.4.2.8 0 1.4-.2 1.9-.6.5-.4.7-1 .7-1.8 0-.3-.1-.6-.2-.9-.1-.4-.2-.7-.4-1-.1-.3-.4-.8-.7-1.6-.3-.7-.6-1.5-1-2.3-.3-.8-.6-1.6-1-2.3-.3-.7-.5-1.3-.7-1.6-.3-.6-.6-.9-1-1.1-.4-.2-.8-.3-1.1-.3-.7 0-1.3.3-1.8.9-.5.6-.9 1.4-1.2 2.3-.3.9-.6 1.8-.7 2.7 0 .9-.1 1.7-.1 2.3z"/>
  <g>
    <path class="st0 korchma" d="M275.6 87.2c0-1 0-2.1.1-3.1 0-.6.1-1.1.1-1.6v-1.6c0-.4 0-.8-.1-1.1 0-.4-.1-.7-.1-1.1 0-.4-.1-.8-.1-1.2s-.1-.8-.1-1.2c0-.6.1-1.1.4-1.4.3-.3.7-.4 1.2-.4.6 0 1.2 0 1.8.1s1.2.1 1.7.1c.3.2.5.5.5.8.1.3.1.6.1 1v1c0 .3 0 .7-.1 1-.1.7-.1 1.3-.1 2 0 .4 0 1 .1 1.7 0 .7.1 1.5.1 2.2.1.8.1 1.5.2 2.2s.2 1.3.2 1.7c.1.3.1.5.3.7.1.2.2.4.4.6s.2.4.3.7c.1.2.1.5.1.7 0 .4-.2.7-.5.9-.3.2-.7.4-1.1.6-.4.1-.8.2-1.3.3-.4 0-.7.1-.9.1h-.3c-.2 0-.4 0-.6-.1-.2 0-.4 0-.6-.1h-.4c-.4 0-.6-.2-.8-.5-.2-.4-.3-.8-.3-1.3-.1-.5-.1-1.1-.1-1.7 0-.9 0-1.5-.1-2zm14.2 11.6c0-.9-.2-1.8-.4-2.7-.3-.9-.6-1.8-1.1-2.6-.4-.9-.9-1.7-1.5-2.5-.5-.8-1.1-1.6-1.7-2.4-.6-.8-1.1-1.5-1.7-2.3l-1.5-2.1c-.1-.2-.1-.3-.2-.6s0-.5 0-.9c0-.6.1-1.2.3-1.8.2-.7.5-1.3.8-2 .3-.7.7-1.3 1.2-2s.9-1.2 1.4-1.7c.5-.5 1-.9 1.5-1.2.5-.3 1-.4 1.5-.4.4 0 .8.2 1 .7.2.5.4 1 .5 1.7.1.6.2 1.3.2 1.9V80c0 .2 0 .4-.1.6s-.1.3-.2.4c-.1.1-.2.2-.4.2-.4-.1-.7-.3-1-.7-.2-.4-.5-.8-.7-1.3-.2-.5-.5-.9-.8-1.3-.3-.4-.7-.6-1.2-.6-.3 0-.5.1-.8.4s-.4.6-.5.9c-.1.4-.2.7-.3 1.1-.1.4-.1.7-.1 1 0 .2 0 .4.1.6 0 .2.1.3.3.4.2.1.4.2.5.4.2.1.3.2.5.3.6.3 1.2.6 1.7.9s1 .6 1.5 1 .9.8 1.3 1.4c.4.5.7 1.2 1.1 1.9.3.7.5 1.5.7 2.4s.3 1.9.3 3.2c0 .2 0 .6-.1 1.2l-.3 1.8c-.2.6-.4 1.3-.6 1.8-.3.6-.6 1-1 1.3l-.2-.5zM302.4 71.8c1.2 1.3 2.2 2.6 3.1 3.9.9 1.3 1.7 2.6 2.5 3.9.4.9.7 1.9 1 3 .2 1.1.3 2.2.3 3.4-.1.2-.1.4-.2.6l-.3.6c-.9 1.2-1.8 2.3-2.7 3.4s-1.9 2.2-2.8 3.3c-.3.3-.7.5-1.1.8-.4.3-.8.4-1.2.4h-.4c-.1 0-.3-.1-.4-.3-.7-.7-1.3-1.3-1.9-2-.6-.7-1.2-1.4-1.6-2.1-.5-.7-.9-1.6-1.2-2.4-.3-.9-.5-1.9-.6-2.9.1-1.2.4-2.4.9-3.7.5-1.3 1-2.7 1.7-3.9.7-1.3 1.5-2.4 2.4-3.5.6-1.1 1.5-1.9 2.5-2.5zm1.4 18.5c.2 0 .3-.1.4-.2l.3-.6c.1-.2.2-.5.2-.8.1-.3.1-.6.1-.9 0-.8-.1-1.6-.3-2.3s-.5-1.5-.8-2.3-.6-1.5-1-2.2c-.4-.7-.7-1.4-1.1-2.1-.2-.5-.5-.8-.8-1.2-.3-.3-.7-.5-1-.5-.2 0-.3.1-.5.3-.1.2-.2.4-.3.7-.1.3-.2.6-.2 1s-.1.7-.1 1.1c0 .5.1.9.2 1.3s.2.9.3 1.3c.1.6.4 1.2.7 2 .3.7.7 1.4 1.1 2.2.4.7.9 1.4 1.4 1.9.5.6 1 1 1.4 1.3zM311.7 90.6c.2-1.2.4-2.3.4-3.5.1-1.2.1-2.3.1-3.3 0-.8 0-1.5-.1-2.3 0-.7-.1-1.5-.2-2.3-.1-.6-.2-1.3-.2-1.9-.1-.6-.1-1.3-.1-1.9 0-.4.1-.7.3-.9.2-.2.4-.3.8-.4.3-.1.7-.1 1.1-.2.5-.1.9-.1 1.4-.2s.9-.1 1.4-.1h2.7c.3 0 .7 0 1 .1.3 0 .5 0 .6.1.4.1.9.2 1.5.4s1 .5 1.5.9.9.8 1.2 1.3c.3.5.5 1.1.5 1.7 0 .7-.2 1.3-.6 1.9-.4.6-.8 1.1-1.4 1.6s-1.1.9-1.6 1.3c-.6.4-1 .7-1.4 1-.2.2-.5.4-.8.6-.3.2-.6.5-.9.8-.3.3-.5.6-.7.9-.2.3-.3.6-.3.8 0 .4 0 .7.1 1.1 0 .3.1.7.2 1.1.1.4.1.8.2 1.2.1.4.1.8.1 1.2 0 .3-.2.5-.5.7-.3.2-.7.3-1.1.3-.4.1-.9.1-1.4.1h-1.1c-.3 0-.6 0-.9-.1s-.6-.1-.8-.3c-.2-.1-.4-.3-.6-.6s-.4-.7-.4-1.1zm6.2-6.6c0 .1.1.2.2.2h.2c.1 0 .3-.1.5-.3s.3-.5.5-.8c.2-.4.3-.8.4-1.4.1-.5.2-1.2.3-1.9v-1.2c0-.4-.1-.9-.2-1.3s-.3-.7-.5-1c-.2-.3-.6-.4-1-.4-.3 0-.5.1-.6.4-.1.2-.1.5-.1.8v1.6c0 .6.1 1.3.1 1.9s.1 1.3.2 1.9c-.2.6-.1 1.1 0 1.5zM337.2 87.2v-1.7c0-.6 0-1.1.1-1.7-.3-.1-.8-.3-1.4-.4-.6-.1-1.2-.2-1.9-.3-.7-.1-1.3-.3-2-.4-.7-.2-1.3-.4-1.9-.7-.6-.3-1-.7-1.4-1.2s-.5-1.1-.5-1.8l-.2-2.7c0-.6.1-1.1.4-1.4.3-.3.7-.4 1.2-.4.6 0 1.2 0 1.8.1.6 0 1.2.1 1.7.1.3.2.5.5.5.8.1.3.1.6.1 1 0 .6 0 1.2-.1 1.7-.1.6-.1 1.2-.1 1.7.1.4.2.7.4 1s.5.4.9.6c.4.1.7.2 1.2.3.4.1.9.1 1.3.2v-.5-.5c0-.8-.1-1.6-.2-2.3-.1-.8-.2-1.6-.2-2.3 0-.6.1-1.1.4-1.4.3-.3.7-.4 1.2-.4.6 0 1.2 0 1.8.1.6 0 1.2.1 1.7.1.3.2.5.5.5.8.1.3.1.6.1 1 0 .7 0 1.4-.1 2-.1.7-.1 1.3-.1 2v1.7c0 .7.1 1.5.1 2.2.1.8.1 1.5.2 2.2.1.7.2 1.3.2 1.7.1.3.1.5.3.7.1.2.2.4.4.6s.2.4.3.7c.1.2.1.5.1.7 0 .4-.2.7-.5.9-.3.2-.7.4-1.1.6-.4.1-.8.2-1.3.3s-.7.1-.9.1h-.3c-.1 0-.4 0-.6-.1-.2 0-.4 0-.6-.1h-.4c-.4 0-.6-.2-.8-.5s-.3-.8-.3-1.3c-.1-.5-.1-1.1-.1-1.7s.2-1.6.1-2.1zM350.9 86.5c0 1.2.2 2.2.6 2.9.4.8.9 1.3 1.6 1.7-.2.2-.4.3-.7.5s-.5.3-.7.4c-.3.2-.7.3-1.1.3s-.8.1-1.2.1c-.3 0-.6 0-.9-.1s-.6-.1-.8-.3-.5-.3-.6-.6c-.2-.2-.3-.6-.3-1 0-.9.2-1.7.5-2.5s.7-1.6 1.2-2.3l1.5-2.1c.6-.7 1.1-1.3 1.6-1.9.1-.2.3-.3.4-.4.1-.1.2-.3.2-.6s-.1-.7-.2-1.1-.3-.8-.4-1.2c-.2-.4-.3-.7-.5-1-.2-.3-.3-.5-.4-.5-.1-.1-.2-.3-.4-.4s-.3-.2-.5-.3c-.2-.1-.3-.2-.4-.4-.1-.1-.2-.3-.2-.5s.1-.4.2-.5c.1-.1.3-.2.4-.3l3.2-1.3c.1 0 .1 0 .2-.1s.2 0 .3 0h.5c.6 0 1 .1 1.4.4.4.3.7.7 1.1 1.1.3.4.6.9.8 1.5s.5 1 .7 1.5c.5 1.1.9 2.1 1.3 3.2.3 1.1.7 2.2 1.1 3.4.3-.5.7-.9 1-1.3.4-.4.7-.8 1-1.2.1-.2.3-.3.4-.4.1-.1.2-.3.2-.6s-.1-.7-.2-1.1-.3-.8-.4-1.2c-.2-.4-.3-.7-.5-1-.2-.3-.3-.5-.4-.5-.1-.1-.2-.3-.4-.4s-.3-.2-.5-.3c-.2-.1-.3-.2-.4-.4-.1-.1-.2-.3-.2-.5s.1-.4.2-.5c.1-.1.3-.2.4-.3l3.2-1.3c.1 0 .1 0 .2-.1s.2 0 .3 0h.5c.6 0 1 .1 1.4.4.4.3.7.7 1.1 1.1s.6.9.8 1.5c.2.5.5 1 .7 1.5l.9 2.1c.3.7.5 1.5.7 2.2.2.7.5 1.5.7 2.3.2.8.5 1.5.7 2.2.1.4.3.8.5 1.2s.4.9.6 1.3c.2.4.4.8.6 1.1.2.3.3.5.5.6-.2.5-.4.9-.7 1.1-.3.3-.7.5-1.1.6-.4.1-.8.2-1.2.2h-1c-.8 0-1.4-.2-1.9-.5-.4-.3-.7-.7-.9-1.1l-.7-1.4c-.1-.4-.3-.8-.4-1.2s-.4-1-.6-1.7c-.3-.7-.7-1.7-1.3-2.9-.1-.2-.2-.3-.3-.4-.1-.1-.3-.2-.4-.2 0 0-.1 0-.2.1-.4.3-.7.7-1 1.2s-.5 1.1-.7 1.7c-.2.6-.3 1.3-.4 2-.1.7-.1 1.4-.1 2.1 0 .8.1 1.5.2 2.2-.4.1-.7.2-1.1.2h-.9c-.8 0-1.4-.2-1.9-.5-.4-.3-.7-.7-.9-1.1l-.7-1.4c-.1-.4-.3-.8-.4-1.2s-.4-1-.6-1.7c-.3-.7-.7-1.7-1.3-2.9-.1-.2-.2-.4-.4-.4-.2-.1-.3-.1-.4-.1-.3 0-.5.1-.7.4-.2.2-.4.5-.5.8s-.2.7-.3 1c-.3.5-.3.8-.3 1.1zM382.5 73.3c.1 0 .1 0 .2-.1s.2 0 .3 0h.5c.6 0 1 .1 1.4.4.4.3.7.7 1.1 1.1.3.4.6.9.8 1.5s.5 1 .7 1.5l.9 2.1c.3.7.5 1.5.7 2.2.2.7.5 1.5.7 2.3.2.8.5 1.5.7 2.2.1.4.3.8.5 1.2.2.5.4.9.6 1.3.2.4.4.8.6 1.1.2.3.3.5.5.6-.2.5-.4.9-.7 1.1s-.7.5-1.1.6c-.4.1-.8.2-1.2.2h-1c-.7 0-1.2-.1-1.6-.4-.4-.2-.7-.5-.9-.8-.2-.3-.4-.6-.6-.8-.2-.2-.4-.4-.7-.4-.4 0-.7.1-1 .2-.3.1-.6.3-.8.5s-.5.4-.8.6l-.9.6c-.3.2-.7.3-1.1.3s-.8.1-1.2.1c-.3 0-.6 0-.9-.1s-.6-.1-.8-.3-.5-.3-.6-.6c-.2-.2-.3-.6-.3-1 0-.9.2-1.7.5-2.5s.7-1.6 1.2-2.3l1.5-2.1c.6-.7 1.1-1.3 1.6-1.9.1-.2.3-.3.4-.4.1-.1.2-.3.2-.6s-.1-.7-.2-1.1-.3-.8-.4-1.2c-.2-.4-.3-.7-.5-1-.2-.3-.3-.5-.4-.5-.1-.1-.2-.3-.4-.4s-.3-.2-.5-.3c-.2-.1-.3-.2-.4-.4-.1-.1-.2-.3-.2-.5s.1-.4.2-.5c.1-.1.3-.2.4-.3l3-1.2zm-2.1 13.2c0 .4.1.8.3 1.1.2.3.4.5.7.6l.9.3c.3 0 .7.1.9.1.3 0 .6-.1.7-.3.2-.2.3-.4.3-.7 0-.1 0-.2-.1-.4 0-.1-.1-.3-.1-.4-.1-.1-.1-.3-.3-.6s-.3-.6-.4-.9c-.1-.3-.3-.6-.4-.9-.1-.3-.2-.5-.3-.6-.1-.2-.2-.4-.4-.4-.2-.1-.3-.1-.4-.1-.3 0-.5.1-.7.4s-.4.5-.5.9c-.1.3-.2.7-.3 1.1.1.3.1.6.1.8z"/>
  </g>
</svg>
